<svg xmlns="http://www.w3.org/2000/svg" width="216" height="30" viewBox="0 0 216 30" fill="none">
  <!-- Visa -->
  <path d="M32.7026 9.5H26.2974C24.2026 9.5 22.5 11.2026 22.5 13.2974V16.7026C22.5 18.7974 24.2026 20.5 26.2974 20.5H32.7026C34.7974 20.5 36.5 18.7974 36.5 16.7026V13.2974C36.5 11.2026 34.7974 9.5 32.7026 9.5Z" fill="#1434CB"/>
  <path d="M28.5813 17.1274L29.4648 12.8687H30.8363L29.9528 17.1274H28.5813ZM34.4549 12.9443C34.1164 12.8064 33.5542 12.6567 32.8607 12.6567C31.1977 12.6567 30.0282 13.4961 30.0214 14.7429C30.0152 15.6553 30.874 16.1496 31.5249 16.4415C32.1943 16.7404 32.4144 16.9346 32.4124 17.2024C32.4097 17.6138 31.8792 17.7998 31.3841 17.7998C30.6824 17.7998 30.3113 17.6939 29.7497 17.4549L29.5522 17.3631L29.3394 18.5345C29.7422 18.7171 30.4908 18.8761 31.2667 18.8836C33.0364 18.8836 34.1829 18.0549 34.1934 16.7311C34.1989 16.001 33.7766 15.4322 32.7661 14.9875C32.1472 14.7003 31.7767 14.5073 31.7809 14.212C31.7809 13.9517 32.0851 13.6775 32.7571 13.6775C33.312 13.6686 33.711 13.8039 34.0167 13.9431L34.1571 14.0125L34.3699 12.9443H34.4549Z" fill="white"/>
  <path d="M37.2305 12.8689H38.365L40.264 17.1275H38.9602C38.9602 17.1275 38.7536 16.5586 38.6955 16.3939H36.3644C36.29 16.5804 36.1452 17.1275 36.1452 17.1275H34.7109L36.9764 13.2202C37.1704 12.8108 37.4536 12.8689 37.2305 12.8689ZM37.0093 15.2975H38.3131C38.1868 14.9478 37.882 14.1767 37.882 14.1767C37.8773 14.1866 37.7972 13.9544 37.7406 13.799L37.5711 14.8672C37.5711 14.8673 37.2522 15.0756 37.0093 15.2975Z" fill="white"/>
  <path d="M25.2219 12.8687L23.9117 15.9763L23.7419 15.1324C23.4391 14.0641 22.5 12.9041 22.5 12.9041L23.6742 17.1249V17.1274H25.0457L27.5 12.8687H25.2219Z" fill="white"/>
  
  <!-- Mastercard -->
  <path d="M62.7026 9.5H56.2974C54.2026 9.5 52.5 11.2026 52.5 13.2974V16.7026C52.5 18.7974 54.2026 20.5 56.2974 20.5H62.7026C64.7974 20.5 66.5 18.7974 66.5 16.7026V13.2974C66.5 11.2026 64.7974 9.5 62.7026 9.5Z" fill="#252525"/>
  <circle cx="57.25" cy="15" r="4.75" fill="#EB001B"/>
  <circle cx="61.75" cy="15" r="4.75" fill="#F79E1B"/>
  <path d="M59.5 11.9271C60.8346 13.0339 61.6875 14.6618 61.6875 16.4608C61.6875 18.2598 60.8346 19.8878 59.5 20.9945C58.1654 19.8878 57.3125 18.2598 57.3125 16.4608C57.3125 14.6618 58.1654 13.0339 59.5 11.9271Z" fill="#FF5F00"/>
  
  <!-- American Express -->
  <path d="M92.7026 9.5H86.2974C84.2026 9.5 82.5 11.2026 82.5 13.2974V16.7026C82.5 18.7974 84.2026 20.5 86.2974 20.5H92.7026C94.7974 20.5 96.5 18.7974 96.5 16.7026V13.2974C96.5 11.2026 94.7974 9.5 92.7026 9.5Z" fill="#1F72CD"/>
  <path d="M88.1562 19.0625H86.3594V16.9844H82.9141V19.0625H81.2031V11.9844H82.9141V15.5469H86.3594V11.9844H88.1562V19.0625ZM93.0625 19.0625L92.25 17.0156H89.3984L88.5859 19.0625H86.7891L89.7266 11.9844H91.9219L94.8594 19.0625H93.0625ZM91.8281 15.5469L91.1719 13.4219C91.1094 13.2031 91.0469 12.9062 90.9844 12.5312H90.9219C90.8594 12.8125 90.7969 13.1094 90.7344 13.4219L90.0781 15.5469H91.8281Z" fill="white"/>
  
  <!-- Paypal -->
  <path d="M122.703 9.5H116.297C114.203 9.5 112.5 11.2026 112.5 13.2974V16.7026C112.5 18.7974 114.203 20.5 116.297 20.5H122.703C124.797 20.5 126.5 18.7974 126.5 16.7026V13.2974C126.5 11.2026 124.797 9.5 122.703 9.5Z" fill="#003087"/>
  <path d="M121.297 13.4375C121.297 14.8125 120.297 15.5 118.859 15.5H118.203L117.812 17.5H116.047L117.172 11.5H119.609C120.734 11.5 121.297 12.2656 121.297 13.4375ZM119.609 13.5C119.609 13.0312 119.344 12.75 118.859 12.75H118.391L118.125 14.25H118.578C119.156 14.25 119.609 14 119.609 13.5Z" fill="white"/>
  <path d="M124.984 13.4375C124.984 14.8125 123.984 15.5 122.547 15.5H121.891L121.5 17.5H119.734L120.859 11.5H123.297C124.422 11.5 124.984 12.2656 124.984 13.4375ZM123.297 13.5C123.297 13.0312 123.031 12.75 122.547 12.75H122.078L121.812 14.25H122.266C122.844 14.25 123.297 14 123.297 13.5Z" fill="#0070E0"/>
  
  <!-- Google Pay -->
  <path d="M152.703 9.5H146.297C144.203 9.5 142.5 11.2026 142.5 13.2974V16.7026C142.5 18.7974 144.203 20.5 146.297 20.5H152.703C154.797 20.5 156.5 18.7974 156.5 16.7026V13.2974C156.5 11.2026 154.797 9.5 152.703 9.5Z" fill="white"/>
  <path d="M148.547 15.5C148.547 15.1562 148.609 14.8281 148.734 14.5156H145.5V16.5156H147.281C147.172 16.9531 146.859 17.3281 146.359 17.5781V18.6406H147.766C148.266 18.1719 148.547 17.4219 148.547 16.5C148.547 16.1719 148.547 15.8281 148.547 15.5Z" fill="#4285F4"/>
  <path d="M145.5 19C146.656 19 147.641 18.6094 148.344 17.9375L146.938 16.875C146.547 17.1406 146.062 17.3125 145.5 17.3125C144.469 17.3125 143.594 16.625 143.281 15.7031H141.844V16.7969C142.531 18.125 143.906 19 145.5 19Z" fill="#34A853"/>
  <path d="M143.281 15.7031C143.188 15.4375 143.125 15.1562 143.125 14.8594C143.125 14.5625 143.188 14.2812 143.281 14.0156V12.9219H141.844C141.562 13.5156 141.406 14.1719 141.406 14.8594C141.406 15.5469 141.562 16.2031 141.844 16.7969L143.281 15.7031Z" fill="#FBBC05"/>
  <path d="M145.5 12.4062C146.125 12.4062 146.688 12.6406 147.125 13.0625L148.375 11.8125C147.641 11.125 146.656 10.7188 145.5 10.7188C143.906 10.7188 142.531 11.5938 141.844 12.9219L143.281 14.0156C143.594 13.0938 144.469 12.4062 145.5 12.4062Z" fill="#EA4335"/>
  <path d="M152.312 17.5H151.312V15.1719H149V14.1719H151.312V11.8438H152.312V14.1719H154.625V15.1719H152.312V17.5Z" fill="#5F6368"/>
  
  <!-- Apple Pay -->
  <path d="M182.703 9.5H176.297C174.203 9.5 172.5 11.2026 172.5 13.2974V16.7026C172.5 18.7974 174.203 20.5 176.297 20.5H182.703C184.797 20.5 186.5 18.7974 186.5 16.7026V13.2974C186.5 11.2026 184.797 9.5 182.703 9.5Z" fill="black"/>
  <path d="M177.625 14.5C177.625 15.5625 178.5 16.5 179.438 16.5C180.562 16.5 181.25 15.5625 181.25 14.5C181.25 13.375 180.562 12.5 179.438 12.5C178.312 12.5 177.625 13.375 177.625 14.5ZM180.562 14.5C180.562 15.3125 180.125 15.875 179.438 15.875C178.688 15.875 178.312 15.3125 178.312 14.5C178.312 13.6875 178.75 13.125 179.438 13.125C180.125 13.125 180.562 13.6875 180.562 14.5ZM175.75 16.9375H176.5V12.5625H175.75V16.9375ZM175.25 11.5625C175.25 11.8125 175.438 12 175.75 12C176.062 12 176.25 11.8125 176.25 11.5625C176.25 11.3125 176.062 11.125 175.75 11.125C175.438 11.125 175.25 11.3125 175.25 11.5625ZM175.25 14.5C175.25 15.5625 176.062 16.5 177.062 16.5C177.438 16.5 177.812 16.375 178.062 16.125V16.375C178.062 16.4375 178.125 16.5 178.188 16.5H178.875V12.5625H178.125V12.875C177.875 12.625 177.5 12.5 177.125 12.5C176.062 12.5 175.25 13.375 175.25 14.5ZM177.938 14.5C177.938 15.3125 177.5 15.875 176.812 15.875C176.125 15.875 175.688 15.3125 175.688 14.5C175.688 13.6875 176.125 13.125 176.812 13.125C177.5 13.125 177.938 13.6875 177.938 14.5ZM183.375 16.9375H184.125V12.125H183.375V16.9375ZM181.5 14.5C181.5 15.5625 182.312 16.5 183.312 16.5C183.688 16.5 184.062 16.375 184.312 16.125V16.375C184.312 16.4375 184.375 16.5 184.438 16.5H185.125V11.125H184.375V12.875C184.125 12.625 183.75 12.5 183.375 12.5C182.312 12.5 181.5 13.375 181.5 14.5ZM184.188 14.5C184.188 15.3125 183.75 15.875 183.062 15.875C182.375 15.875 181.938 15.3125 181.938 14.5C181.938 13.6875 182.375 13.125 183.062 13.125C183.75 13.125 184.188 13.6875 184.188 14.5Z" fill="white"/>
</svg> 